<?xml version="1.0" encoding="UTF-8"?>
<svg width="48" height="48" viewBox="0 0 48 48" fill="none" xmlns="http://www.w3.org/2000/svg">
<path d="M34 16C32.8 17.2 31 18 29 18C27 18 25.2 17.2 24 16C22.8 14.8 22 13 22 11C22 9 22.8 7.2 24 6C25.2 4.8 27 4 29 4C31 4 32.8 4.8 34 6C35.2 7.2 36 9 36 11C36 13 35.2 14.8 34 16Z" fill="white"/>
<path d="M24 20C22.8 21.2 21 22 19 22C17 22 15.2 21.2 14 20C12.8 18.8 12 17 12 15C12 13 12.8 11.2 14 10C15.2 8.8 17 8 19 8C21 8 22.8 8.8 24 10C25.2 11.2 26 13 26 15C26 17 25.2 18.8 24 20Z" fill="white"/>
<path d="M34 30C32.8 31.2 31 32 29 32C27 32 25.2 31.2 24 30C22.8 28.8 22 27 22 25C22 23 22.8 21.2 24 20C25.2 18.8 27 18 29 18C31 18 32.8 18.8 34 20C35.2 21.2 36 23 36 25C36 27 35.2 28.8 34 30Z" fill="white"/>
</svg>