<?xml version="1.0" encoding="UTF-8"?>
<svg width="48" height="48" viewBox="0 0 48 48" fill="none" xmlns="http://www.w3.org/2000/svg">
<path d="M24 44C35.0457 44 44 35.0457 44 24C44 12.9543 35.0457 4 24 4C12.9543 4 4 12.9543 4 24C4 35.0457 12.9543 44 24 44Z" stroke="white" stroke-width="2"/>
<path d="M16 18H28C30.2091 18 32 19.7909 32 22C32 24.2091 30.2091 26 28 26H16" stroke="white" stroke-width="2"/>
<path d="M16 26H30C32.2091 26 34 27.7909 34 30C34 32.2091 32.2091 34 30 34H16" stroke="white" stroke-width="2"/>
<path d="M20 14V38M24 14V38" stroke="white" stroke-width="2"/>
</svg>